<?xml version="1.0" encoding="UTF-8" standalone="no"?>
<!-- Created with Inkscape (http://www.inkscape.org/) -->

<svg
   width="234.32471"
   height="196.73061"
   viewBox="0 0 234.32471 196.73061"
   version="1.1"
   id="svg1"
   xml:space="preserve"
   sodipodi:docname="Square_Logo_Main_Logo_White_BG_PlusName.svg"
   xmlns:inkscape="http://www.inkscape.org/namespaces/inkscape"
   xmlns:sodipodi="http://sodipodi.sourceforge.net/DTD/sodipodi-0.dtd"
   xmlns="http://www.w3.org/2000/svg"
   xmlns:svg="http://www.w3.org/2000/svg"><sodipodi:namedview
     id="namedview1"
     pagecolor="#ffffff"
     bordercolor="#000000"
     borderopacity="0.25"
     inkscape:showpageshadow="2"
     inkscape:pageopacity="0.0"
     inkscape:pagecheckerboard="0"
     inkscape:deskcolor="#d1d1d1"><inkscape:page
       x="0"
       y="0"
       width="234.32471"
       height="196.73061"
       id="page2"
       margin="0"
       bleed="0" /></sodipodi:namedview><defs
     id="defs1"><rect
       x="84.116791"
       y="105.84696"
       width="488.57837"
       height="123.3713"
       id="rect38" /><rect
       x="84.116791"
       y="105.84696"
       width="488.57837"
       height="123.3713"
       id="rect4" /></defs><g
     id="layer2"
     transform="translate(-82.837645,-101.6347)"><g
       id="g38"
       style="display:inline"
       transform="translate(0.8055045,1.17676)"><rect
         style="display:inline;fill:#f7f7f8;fill-opacity:1"
         id="rect32"
         width="400"
         height="400"
         x="0"
         y="0"
         transform="translate(-0.8055045,-1.17676)" /><g
         id="g8"
         transform="translate(0,5.7406934)"><g
           id="g4"
           transform="translate(0,-6.8233757)"><g
             id="g33"
             style="fill:#f7f7f8;fill-opacity:1"><path
               id="path32"
               style="display:inline;fill:#434b57;fill-opacity:1"
               d="M 82.032141,153.71777 V 243.9287 H 107.93058 V 233.14746 H 92.813391 v -68.64843 h 15.117189 v -10.78125 z" /><path
               id="path33"
               style="display:inline;fill:#434b57;fill-opacity:1"
               d="m 316.35685,243.9287 v -90.21093 h -25.89844 v 10.78125 h 15.11719 v 68.64844 h -15.11719 v 10.78125 z" /></g><g
             id="g37"><path
               id="path34"
               style="display:inline;fill:#434b57;fill-opacity:1;stroke-width:0.977547"
               d="m 120.13927,169.02148 -6.85547,6.85547 v 45.89063 l 6.85743,6.85742 h 25.56835 l 6.85547,-6.85352 v -45.89843 l -6.85351,-6.85157 z m 4.48438,11.2129 h 16.60547 v 37.17382 h -16.60547 z" /><path
               id="path35"
               style="display:inline;fill:#434b57;fill-opacity:1;stroke-width:0.977547"
               d="m 208.04494,169.02149 -6.85547,6.85547 v 18.1992 l 4.74805,4.74806 -4.74805,4.74805 v 18.1953 l 6.85742,6.85743 h 25.56836 l 6.85547,-6.85351 v -18.19922 l -4.74805,-4.74805 4.74805,-4.74806 v -18.20311 l -6.85352,-6.85156 z m 4.48437,11.21288 h 16.60547 v 12.82618 h -16.60547 z m 0,24.35159 h 16.60547 v 12.82227 h -16.60547 z" /><path
               id="path36"
               style="display:inline;fill:#434b57;fill-opacity:1;stroke-width:0.977547"
               d="m 252.67941,169.02148 -6.85547,6.85547 v 45.89063 l 6.85743,6.85742 h 25.56835 l 6.85547,-6.85352 v -45.89843 l -6.85351,-6.85157 z m 4.48438,11.2129 h 16.60547 v 37.17382 h -16.60547 z" /><path
               id="path37"
               style="fill:#7953f5;fill-opacity:1"
               d="m 157.91827,184.26172 v 2.79687 l 12.54101,18.77344 -12.54101,18.77344 v 4.01953 h 9.39843 l 9.49219,-14.20703 9.49024,14.20703 h 9.53711 v -4.01953 l -12.54102,-18.77344 12.54102,-18.77344 v -2.79687 h -9.53516 l -9.49219,14.20898 -9.49219,-14.20898 z" /></g></g><text
           xml:space="preserve"
           transform="translate(-7.5279606,-38.328344)"
           id="text38"
           style="font-style:normal;font-variant:normal;font-weight:normal;font-stretch:normal;font-size:74.6667px;font-family:'Share Tech Mono';-inkscape-font-specification:'Share Tech Mono';text-align:start;letter-spacing:-0.05px;writing-mode:lr-tb;direction:ltr;white-space:pre;shape-inside:url(#rect38);display:inline;fill:#434b57;fill-opacity:1"><tspan
             x="84.117188"
             y="174.89977"
             id="tspan6"><tspan
               style="font-weight:bold;font-family:Geo;-inkscape-font-specification:Geo"
               id="tspan3">SYSCALL</tspan></tspan></text><text
           xml:space="preserve"
           transform="translate(-8.0735309,112.84886)"
           id="text3"
           style="font-style:normal;font-variant:normal;font-weight:normal;font-stretch:normal;font-size:78.6667px;font-family:'Share Tech Mono';-inkscape-font-specification:'Share Tech Mono';text-align:start;letter-spacing:-0.05px;writing-mode:lr-tb;direction:ltr;white-space:pre;shape-inside:url(#rect4);display:inline;fill:#434b57;fill-opacity:1"><tspan
             x="84.117188"
             y="178.59899"
             id="tspan8"><tspan
               style="font-weight:bold;font-family:Geo;-inkscape-font-specification:Geo"
               id="tspan7">STUDIOS</tspan></tspan></text></g></g></g></svg>
